<svg xmlns="http://www.w3.org/2000/svg" viewBox="0 0 1024 1024">
  <defs>
    <radialGradient id="blueGradient" cx="50%" cy="50%" r="50%" fx="50%" fy="50%">
      <stop offset="0%" style="stop-color:#007bff;stop-opacity:1" />
      <stop offset="100%" style="stop-color:#0056b3;stop-opacity:1" />
    </radialGradient>
  </defs>
  <rect x="0" y="0" width="1024" height="1024" rx="200" ry="200" fill="url(#blueGradient)"/>
  
  <g transform="translate(150, 150) scale(0.7)">
    <path d="M512 992C246.9 992 32 777.1 32 512S246.9 32 512 32s480 214.9 480 480-214.9 480-480 480zM512 96C281.3 96 96 281.3 96 512s185.3 416 416 416 416-185.3 416-416S742.7 96 512 96z" fill="#ffffff"/>
    <path d="M512 960V64M64 512h896M288 166.1c52.5-38.6 117.9-62.1 189-68.1M288 857.9c52.5 38.6 117.9 62.1 189 68.1M736 166.1c-52.5-38.6-117.9-62.1-189-68.1M736 857.9c-52.5 38.6-117.9 62.1-189 68.1M166.1 288c38.6-52.5 62.1-117.9 68.1-189M857.9 288c-38.6-52.5-62.1-117.9-68.1-189M166.1 736c38.6 52.5 62.1 117.9 68.1 189M857.9 736c-38.6 52.5-62.1 117.9-68.1 189" stroke="#ffffff" stroke-width="64" fill="none" stroke-linecap="round" stroke-linejoin="round"/>
    
    <path d="M896 224l-192-96-256 256-192-96-128 128 160 64-256 256C64 864 64 992 192 992s128-128 256-256l64 160 128-128-96-192 256-256-96-192z" fill="#ffffff"/>
    <path d="M384 704L128 960c-64 64-96 96-96 32s32-96 96-160l256-256 64 64-64 64z" fill="#ff9933"/>
  </g>
</svg>