 <svg version="1.0" xmlns="http://www.w3.org/2000/svg"  width="32.000000pt" height="32.000000pt" viewBox="0 0 32.000000 32.000000"  preserveAspectRatio="xMidYMid meet">  <g transform="translate(0.000000,32.000000) scale(0.100000,-0.100000)" fill="#000000" stroke="none"> <path d="M138 303 c-10 -2 -21 -15 -24 -28 -3 -14 -14 -27 -24 -30 -10 -3 -33 -22 -49 -41 -35 -40 -42 -98 -15 -139 32 -49 147 -71 218 -41 73 30 90 118 35 180 -16 19 -39 38 -50 41 -10 4 -19 15 -19 26 0 12 -10 23 -26 29 -14 6 -26 9 -27 9 -1 -1 -10 -3 -19 -6z m48 -26 c8 3 14 -1 14 -11 0 -9 17 -27 39 -41 98 -66 74 -182 -41 -199 -99 -15 -178 31 -178 102 0 34 6 45 40 76 22 20 44 36 49 36 5 0 14 12 19 28 6 15 11 21 11 15 1 -20 21 -15 22 5 1 15 2 16 6 0 2 -10 10 -15 19 -11z"/> <path d="M84 162 c3 -5 -1 -12 -9 -16 -25 -9 -18 -38 8 -34 16 2 22 10 22 27 0 14 -6 26 -14 29 -8 3 -11 0 -7 -6z"/> <path d="M224 162 c-19 -13 -10 -47 14 -50 13 -2 22 2 22 10 -1 20 -25 47 -36 40z"/> </g> </svg> 
